<svg width="32" height="32" viewBox="0 0 32 32" fill="none" xmlns="http://www.w3.org/2000/svg">
<rect width="32" height="32" rx="8" fill="#04AEAE"/>
<path d="M16.8594 16.8594H24.3203C24.138 18.8385 23.3438 20.5312 21.9375 21.9375C20.5312 23.3438 18.8385 24.138 16.8594 24.3203V16.8594ZM16.8594 7.67969C18.8385 7.86198 20.5312 8.65625 21.9375 10.0625C23.3438 11.4688 24.138 13.1615 24.3203 15.1406H16.8594V7.67969ZM15.1797 7.67969V24.3203C13.0703 24.112 11.293 23.2135 9.84766 21.625C8.40234 20.0365 7.67969 18.1615 7.67969 16C7.67969 13.8385 8.40234 11.9635 9.84766 10.375C11.293 8.78646 13.0703 7.88802 15.1797 7.67969Z" fill="white"/>
</svg>
